<svg xmlns="http://www.w3.org/2000/svg" viewBox="0 0 1920 1080"><defs><style>.cls-1{fill:#ec7041;}.cls-1,.cls-2,.cls-3,.cls-4,.cls-5,.cls-6{fill-rule:evenodd;}.cls-2{fill:#174579;}.cls-3{fill:#b2d1e2;}.cls-4{fill:#73abca;}.cls-5{fill:#3384b2;}.cls-6{fill:#00659f;}.cls-7{font-size:8.81px;fill:#184478;font-family:Lato-Medium, Lato;letter-spacing:-0.01em;}</style></defs><title>caspio-logo-2018_colored</title><g id="Layer_3" data-name="Layer 3"><path class="cls-1" d="M1020.71,465.58a16,16,0,1,0-16-16A16,16,0,0,0,1020.71,465.58Z"/><path class="cls-2" d="M1129.42,489.87c-8.39-9.36-20.23-13.9-35.37-13.9h-.13c-14.31,0-26,4.82-34.82,14.45s-13.2,22.15-13.2,37.43c0,15.82,4.26,28.62,12.65,38.11s20.23,14.31,35.37,14.45h.13c14.87,0,26.56-4.82,35.09-14.31s12.94-22.16,12.94-38.25S1137.81,499.09,1129.42,489.87Zm-18,62.75a20.64,20.64,0,0,1-17.34,8.53h-.13c-15.83,0-23.67-11-23.67-33,0-10.18,2.07-18.16,6.47-23.94a20.56,20.56,0,0,1,17.2-8.53h.13c15.83,0,23.67,10.87,23.67,32.47C1117.72,538.72,1115.66,546.84,1111.39,552.62Z"/><path class="cls-2" d="M1036,475.63H999.68c-3.7.1-6.69,4.54-6.69,10s3,9.89,6.69,10v0h12.79l0,77.13a.28.28,0,0,0,0,.09.22.22,0,0,0,0,.08V573h0c.14,3.88,5.35,7,11.75,7s11.61-3.12,11.74-7h0Z"/><path class="cls-3" d="M1196.92,476.42a3.11,3.11,0,0,1-4,1.9l-22.73-8a3.11,3.11,0,0,1-1.9-4l8-22.69a3.1,3.1,0,0,1,4-1.89l22.73,8a3.1,3.1,0,0,1,1.89,4Z"/><path class="cls-4" d="M1238.8,516.22a3.12,3.12,0,0,1-4,1.9l-22.74-8a3.1,3.1,0,0,1-1.89-4l8-22.69a3.11,3.11,0,0,1,4-1.9l22.73,8a3.1,3.1,0,0,1,1.9,4Z"/><path class="cls-4" d="M1193.46,537.68a3.11,3.11,0,0,1-4,1.9l-22.73-8a3.12,3.12,0,0,1-1.9-4l8-22.69a3.1,3.1,0,0,1,4-1.9l22.74,8a3.11,3.11,0,0,1,1.9,4Z"/><path class="cls-5" d="M1235.86,571.25a3.13,3.13,0,0,1-4,1.9l-22.73-8a3.12,3.12,0,0,1-1.9-4l8-22.7a3.11,3.11,0,0,1,4-1.89l22.73,8a3.11,3.11,0,0,1,1.9,4Z"/><path class="cls-6" d="M1224.09,604.47a3.11,3.11,0,0,1-4,1.9l-22.74-8a3.1,3.1,0,0,1-1.89-4l8-22.69a3.12,3.12,0,0,1,4-1.9l22.73,8a3.1,3.1,0,0,1,1.9,4Z"/><path class="cls-5" d="M1190.69,592.53a3.11,3.11,0,0,1-4,1.9l-22.73-8a3.11,3.11,0,0,1-1.9-4l8-22.7a3.12,3.12,0,0,1,4-1.89l22.73,8a3.11,3.11,0,0,1,1.9,4Z"/><path class="cls-2" d="M948.39,476.31H859.92c-17.34.55-33.44,9.49-33.44,28.49,0,15.82,9.08,23.39,20.91,29.31,8.12,4.12,15.83,5.36,18.72,11.41s.82,15.14-9.77,15.69H826.48C818,561.21,814,559,814,549.38V526.54c0-19.41-3.44-32.61-10.6-39.63-6.71-6.58-16.83-10.28-30.77-10.72v0H755.33c-3.72,0-6.73,4.47-6.74,10s3,10,6.74,10h12.94c1.32,0,2.76,0,4.13.12h0c12.11,1.1,18.16,6.88,18.16,17.62a40,40,0,0,0-9.76-1.52,82.3,82.3,0,0,0-8.4.42c-12,1-21.46,4.12-28.62,9.49-8.67,6.47-13.07,15.69-13.07,27.24a36.43,36.43,0,0,0,.41,5.51c-5.65,5.75-11.23,6.06-27.77,6.06-20,0-30-10.6-30-31.65,0-10.46,2.61-18.58,7.7-24.5a24.48,24.48,0,0,1,19.15-8.66l28,0h.31v0c3.32-.22,6-4.62,6-10s-2.66-9.77-6-10v0H701.66c-14.82-.13-28.16,5.23-37.93,15S649,513.6,649,529.43c0,16.09,4.54,28.62,13.49,37.7s21,13.2,36.6,13.48c21,.38,28.89-.81,40.56-8.39.14.14.28.28.42.28,6,5.5,14.58,8.11,25.31,8.11a64.26,64.26,0,0,0,7-.41,41.07,41.07,0,0,0,12.39-2.89c5.36-2.2,10.45-5.51,12.65-9.08,2.89,5,8.4,12.25,21.33,12.25l39.15,0A50.38,50.38,0,0,0,878.63,574c7.43-4.54,12.93-14.17,12.93-23.53,0-15.82-9.22-22-21-27.93-8.11-4.13-14.58-5.65-18.71-11.43s-1.38-14.58,9.22-14.86l41.14.14L902,618.18h0c0,4.15,5.33,7.52,11.89,7.52s11.89-3.37,11.89-7.52h0v-42a43.9,43.9,0,0,0,20.09,4.4h2.47c13.9-.41,25.18-4.81,33.44-13.2q13.21-13.42,13.22-38C995.05,494.2,980,476.31,948.39,476.31ZM790.7,540.85c0,13.21-6.05,19.81-18.3,20.64a15.47,15.47,0,0,1-2.61.14c-10.32,0-15.69-4.13-15.69-13.08,0-9.9,6.19-15.82,18.3-17.61a65.39,65.39,0,0,1,9.36-.68,47.28,47.28,0,0,1,8.94,1.23Zm173,12.25c-3.44,3.85-8.4,6.33-15.28,7.29a67.84,67.84,0,0,1-7.7.41,22.91,22.91,0,0,1-14.86-5.09V496.54l14.86-.14a65.8,65.8,0,0,1,7.7.28c7.16,1,11.84,3.3,15.42,7,4.68,4.82,7,13.08,7,25.05C970.83,539.89,968.49,548,963.67,553.1Z"/><text class="cls-7" transform="translate(1228.16 612.29)">TM</text></g></svg>
